<?xml version="1.0" encoding="UTF-8"?>
<svg version="1.1" xmlns="http://www.w3.org/2000/svg" width="644" height="306">
<path d="M0 0 C3.54815905 1.77193898 7.01169707 3.67900268 10.4609375 5.63549805 C11.17797852 6.041875 11.89501953 6.44825195 12.63378906 6.86694336 C20.89726152 11.58945675 29.00413852 16.56376601 37.09375 21.5769043 C41.70062055 24.39340172 46.35723854 27.12179514 51.0168457 29.84985352 C55.74732102 32.62111434 60.45480192 35.42735842 65.1484375 38.26049805 C70.02771293 41.20383 74.94221865 44.0737138 79.8984375 46.88549805 C84.83093601 49.68803866 89.70699381 52.5382317 94.4609375 55.63549805 C95.4303125 56.26456055 96.3996875 56.89362305 97.3984375 57.54174805 C100.44238029 59.54120067 103.45965766 61.57264655 106.4609375 63.63549805 C107.10804688 64.07893555 107.75515625 64.52237305 108.421875 64.97924805 C112.5180746 68.05659597 114.8381851 71.85170194 116.4609375 76.63549805 C117.03454951 80.87182682 117.02829658 85.06419028 117.01025391 89.33447266 C117.02047577 90.58914841 117.03069763 91.84382416 117.04122925 93.13652039 C117.06417912 96.55835082 117.06918319 99.97920866 117.06410265 103.40104747 C117.0619537 106.26621971 117.071754 109.1313039 117.08131349 111.99645716 C117.10345405 118.75991299 117.10440655 125.52314662 117.09228516 132.28662109 C117.0802049 139.24538058 117.10483894 146.20333136 117.14742529 153.16195291 C117.1827405 159.15461409 117.1946472 165.14701879 117.18814981 171.1397801 C117.18453722 174.71107068 117.18966265 178.2817841 117.21757889 181.85297966 C117.24756872 185.83801482 117.22872452 189.82203196 117.20556641 193.80712891 C117.22085388 194.97779907 117.23614136 196.14846924 117.25189209 197.35461426 C117.15359375 205.0248135 115.55740509 209.83726981 110.4609375 215.63549805 C108.0390625 217.8347168 108.0390625 217.8347168 105.7109375 219.32299805 C104.84082031 219.88760742 103.97070312 220.4522168 103.07421875 221.03393555 C102.21183594 221.56245117 101.34945312 222.0909668 100.4609375 222.63549805 C99.71199219 223.10213867 98.96304688 223.5687793 98.19140625 224.04956055 C95.63248596 225.61019677 93.04906994 227.12375446 90.4609375 228.63549805 C89.15459692 229.40703948 87.84863693 230.17922552 86.54296875 230.9519043 C79.75436424 234.96402315 72.94945431 238.94033423 66.0859375 242.82299805 C61.90496294 245.1977916 57.81147638 247.65033713 53.7734375 250.26049805 C49.37589993 253.10218168 44.87995252 255.64149992 40.265625 258.11206055 C36.33153618 260.24896116 32.48155142 262.52137955 28.62109375 264.7878418 C24.70805524 267.07568755 20.77512471 269.32774709 16.83520508 271.56884766 C13.74791843 273.32538521 10.66872251 275.09400479 7.6015625 276.88549805 C6.9710498 277.25167236 6.34053711 277.61784668 5.69091797 277.99511719 C3.93279083 279.0167191 2.17725509 280.0427769 0.421875 281.0690918 C-4.69565111 283.77638463 -9.79548011 284.68979947 -15.5390625 283.63549805 C-26.85940862 279.08192062 -37.36913166 272.39402479 -47.85693359 266.21411133 C-52.84655095 263.27738587 -57.85040702 260.36501411 -62.8515625 257.44799805 C-63.8729834 256.85116211 -64.8944043 256.25432617 -65.94677734 255.6394043 C-72.51488089 251.80401536 -79.10480399 248.01201492 -85.734375 244.28393555 C-87.71640668 243.11900885 -89.65930671 241.88626255 -91.5703125 240.6081543 C-94.29335105 238.79876684 -97.02677376 237.22631364 -99.9140625 235.69799805 C-103.86530102 233.57327545 -107.67444483 231.33527253 -111.4453125 228.90893555 C-113.91906169 227.40437914 -116.46961857 226.09463239 -119.0390625 224.76049805 C-125.69949495 221.16700537 -134.65561954 215.42463342 -137.1283617 207.82417011 C-137.60660492 205.27555668 -137.66814302 202.89840942 -137.67277527 200.304245 C-137.67704025 199.22343658 -137.68130524 198.14262817 -137.68569946 197.02906799 C-137.68524628 195.84820114 -137.68479309 194.66733429 -137.68432617 193.45068359 C-137.68768478 192.20313293 -137.6910434 190.95558228 -137.69450378 189.67022705 C-137.70237689 186.25066287 -137.70568144 182.8311594 -137.70631957 179.41159034 C-137.70703085 177.27341753 -137.70916667 175.13525108 -137.71181679 172.99707985 C-137.72106707 165.53255434 -137.72515216 158.06804668 -137.72436523 150.60351562 C-137.72376485 143.65417149 -137.73430976 136.70490508 -137.7501089 129.7555806 C-137.7632026 123.7826125 -137.76854835 117.80966973 -137.76790982 111.83668739 C-137.76765533 108.27230427 -137.77047947 104.70799022 -137.78108788 101.14362144 C-137.79260528 97.16521571 -137.78801082 93.18691577 -137.78198242 89.20849609 C-137.78760193 88.03370193 -137.79322144 86.85890778 -137.79901123 85.64851379 C-137.74754153 72.28233303 -137.74754153 72.28233303 -133.47265625 67.15893555 C-128.94480809 63.26172664 -124.59543131 59.79614182 -119.2734375 57.0690918 C-115.51246499 55.09726764 -111.87907203 52.92514061 -108.2265625 50.76049805 C-106.73061658 49.87743507 -105.2345244 48.99461981 -103.73828125 48.11206055 C-103.01817871 47.68699219 -102.29807617 47.26192383 -101.55615234 46.82397461 C-98.88886556 45.25239968 -96.21465762 43.69287893 -93.5390625 42.13549805 C-86.68024134 38.13916593 -79.83804875 34.11480516 -72.99902344 30.0847168 C-71.27861954 29.07118787 -69.55788956 28.05821234 -67.83691406 27.0456543 C-54.47037367 19.19259115 -54.47037367 19.19259115 -41.2265625 11.13549805 C-36.40279295 8.15114257 -31.57246632 5.25321941 -26.5390625 2.63549805 C-25.66636719 2.16885742 -24.79367188 1.7022168 -23.89453125 1.22143555 C-15.10376527 -3.18009483 -9.11002301 -4.26918454 0 0 Z " fill="#0B2644" transform="translate(143.5390625,9.364501953125)"/>
<path d="M0 0 C9.55545666 7.73318207 14.53384749 19.00787491 16.16015625 30.99609375 C17.4942315 45.31391544 15.48712692 58.39050174 6.1015625 69.81640625 C1.39451004 74.74070729 -3.10130548 78.70283141 -9.5625 80.97265625 C-10.35914063 81.26785156 -11.15578125 81.56304687 -11.9765625 81.8671875 C-25.46792049 86.22501552 -38.64270237 84.54995418 -51.34765625 78.6875 C-61.08911133 73.41271512 -66.89183961 64.65080486 -70.46875 54.3671875 C-74.55572346 40.34659798 -73.81256556 25.5525756 -67.27734375 12.3828125 C-60.92275615 2.02784385 -51.43717413 -4.6566266 -39.76953125 -7.7734375 C-25.22861721 -10.74724926 -12.39843463 -8.48788185 0 0 Z M-46.5625 14.97265625 C-53.36849722 23.10665292 -55.41005333 32.60168552 -54.5625 42.97265625 C-53.73093212 50.27197431 -50.2785777 56.7494478 -44.70703125 61.58203125 C-37.84082403 66.24173276 -30.30651457 67.7248817 -22.1171875 66.640625 C-14.9384726 64.76362156 -8.47465958 60.25582164 -4.5625 53.97265625 C-0.45654188 43.40732499 -0.11024508 32.4975981 -4.5625 21.97265625 C-7.93965455 16.76293722 -12.52566878 11.89696493 -18.5625 9.97265625 C-28.40421794 8.27146301 -38.49488125 8.32525401 -46.5625 14.97265625 Z " fill="#0D2847" transform="translate(517.5625,65.02734375)"/>
<path d="M0 0 C1.15858521 0.00725098 1.15858521 0.00725098 2.34057617 0.01464844 C3.13939209 0.01948242 3.93820801 0.02431641 4.76123047 0.02929688 C7.35048102 0.05441328 9.93909819 0.09464771 12.52807617 0.13964844 C13.81584961 0.15850098 13.81584961 0.15850098 15.12963867 0.17773438 C30.3029924 0.45851018 44.82802682 1.70058696 56.27026367 12.83496094 C66.82751574 24.54773313 68.43085396 37.66974553 67.68774414 52.88037109 C66.90602366 63.94159634 63.55700522 72.67851236 55.24682617 80.20605469 C53.05674928 81.95446607 50.86002564 83.58638881 48.52807617 85.13964844 C47.80644287 85.63053955 47.08480957 86.12143066 46.34130859 86.62719727 C36.40874619 91.96714555 23.29551173 91.58006648 12.27685547 91.42089844 C10.03946773 91.38891791 7.80278222 91.37982847 5.56518555 91.37402344 C-5.30716495 91.30440732 -5.30716495 91.30440732 -6.47192383 90.13964844 C-6.57242597 87.37563436 -6.60808458 84.63657618 -6.60131836 81.87207031 C-6.60307068 81.0054628 -6.604823 80.13885529 -6.60662842 79.24598694 C-6.61104808 76.3667707 -6.60810855 73.48761535 -6.60473633 70.60839844 C-6.60540933 68.61682117 -6.60637933 66.62524398 -6.6076355 64.63366699 C-6.60911263 60.45384949 -6.60695744 56.27405331 -6.60229492 52.09423828 C-6.59659763 46.72362317 -6.59987655 41.35305803 -6.60586739 35.98244476 C-6.6094726 31.86822123 -6.6083346 27.75400965 -6.60573959 23.63978577 C-6.60507021 21.65894057 -6.60589913 19.67809431 -6.60821915 17.69725037 C-6.61074502 14.93387968 -6.60690601 12.1705911 -6.60131836 9.40722656 C-6.60334259 8.58017715 -6.60536682 7.75312775 -6.60745239 6.90101624 C-6.58301267 0.41117809 -6.52977719 0.02085953 0 0 Z M11.52807617 18.13964844 C11.52807617 36.61964844 11.52807617 55.09964844 11.52807617 74.13964844 C28.6430635 74.61222912 28.6430635 74.61222912 42.46557617 68.20214844 C48.43834331 62.2293813 49.61811269 55.09817344 49.90307617 46.95214844 C49.75343727 39.38218054 48.70477824 31.25206225 43.94995117 25.09667969 C34.33076886 16.32242555 24.8230141 18.13964844 11.52807617 18.13964844 Z " fill="#0F2949" transform="translate(368.471923828125,56.8603515625)"/>
<path d="M0 0 C3.92785139 2.29427179 6.55325195 4.65975586 8 9 C8.0833804 11.13794525 8.10733747 13.27842009 8.09765625 15.41796875 C8.09443359 16.67158203 8.09121094 17.92519531 8.08789062 19.21679688 C8.07532227 21.18229492 8.07532227 21.18229492 8.0625 23.1875 C8.05748317 24.52278481 8.05292059 25.85807141 8.04882812 27.19335938 C8.03702695 30.46228473 8.02056297 33.73111991 8 37 C8.70084717 36.98428955 9.40169434 36.9685791 10.1237793 36.95239258 C13.31160351 36.88987588 16.49929851 36.85095619 19.6875 36.8125 C20.79029297 36.78736328 21.89308594 36.76222656 23.02929688 36.73632812 C24.09599609 36.72666016 25.16269531 36.71699219 26.26171875 36.70703125 C27.24100342 36.6913208 28.22028809 36.67561035 29.22924805 36.65942383 C32.52251457 37.06422661 34.34115396 38.0417397 37 40 C39.36113721 43.54170582 39.78117292 45.76934307 40 50 C38.25007094 54.1803861 35.87617822 56.69926968 32 59 C27.88600228 59.49741697 23.82366061 59.37570447 19.6875 59.25 C18.56537109 59.23195312 17.44324219 59.21390625 16.28710938 59.1953125 C13.52386553 59.14827856 10.76237302 59.08256317 8 59 C8.02094727 59.81678223 8.04189453 60.63356445 8.06347656 61.47509766 C8.1468513 65.19160555 8.19872988 68.90791633 8.25 72.625 C8.28351563 73.91019531 8.31703125 75.19539063 8.3515625 76.51953125 C8.46211341 87.18769417 8.46211341 87.18769417 6.234375 90.7734375 C2.89083334 94.10528846 0.3314036 95.30183564 -4.375 95.5 C-5.10460937 95.5515625 -5.83421875 95.603125 -6.5859375 95.65625 C-9.59045708 94.8394874 -11.67471227 93.56403034 -13.80029297 91.28222656 C-16.56906819 86.01513036 -15.58930221 79.4354204 -15.375 73.625 C-15.34487301 72.20708765 -15.31750197 70.78911391 -15.29296875 69.37109375 C-15.22716243 65.91277787 -15.12379659 62.45678182 -15 59 C-15.7206665 59.0314209 -16.44133301 59.0628418 -17.18383789 59.09521484 C-20.47640078 59.22060046 -23.76846064 59.29818176 -27.0625 59.375 C-28.19623047 59.42527344 -29.32996094 59.47554687 -30.49804688 59.52734375 C-39.97720002 59.69315984 -39.97720002 59.69315984 -44.2265625 56.22265625 C-46.99095506 53.5111769 -48.2201197 50.91010604 -48.4140625 47.03125 C-47.62071034 43.13933373 -44.91654119 40.54735876 -42 38 C-39.33821779 36.6691089 -37.31260604 36.88731007 -34.3359375 36.90234375 C-33.21445313 36.90556641 -32.09296875 36.90878906 -30.9375 36.91210938 C-29.761875 36.92048828 -28.58625 36.92886719 -27.375 36.9375 C-26.19164062 36.94201172 -25.00828125 36.94652344 -23.7890625 36.95117188 C-20.85932493 36.96298533 -17.92968728 36.97945742 -15 37 C-15.02094727 36.08710205 -15.04189453 35.1742041 -15.06347656 34.23364258 C-15.13182717 30.83233465 -15.18188329 27.43176101 -15.21972656 24.0300293 C-15.23978825 22.56051079 -15.26704478 21.09107159 -15.30175781 19.62182617 C-15.35052141 17.50419513 -15.37302161 15.38762313 -15.390625 13.26953125 C-15.41157227 11.99698486 -15.43251953 10.72443848 -15.45410156 9.41333008 C-14.92319536 5.42268512 -13.81071513 3.82084207 -11 1 C-7.48074853 -0.75962574 -3.83078834 -0.67491866 0 0 Z " fill="#489AC7" transform="translate(198,91)"/>
<path d="M0 0 C8.85296084 9.09223005 11.53454543 18.8651531 12.40332031 31.171875 C12.97741962 37.68835306 15.29576465 41.88373868 19.4375 47 C26.91488515 53.17697034 34.69934371 55.8387144 44.3125 55.375 C46.66719525 55.11780165 48.9744108 54.76468153 51.3125 54.375 C51.9725 55.365 52.6325 56.355 53.3125 57.375 C46.17141819 63.51346574 37.53190319 68.33035107 27.828125 67.82421875 C9.7369492 64.59365164 0.41091988 53.95268766 -10.4375 40.22265625 C-11.6875 38.375 -11.6875 38.375 -11.6875 36.375 C-12.26886719 36.09785156 -12.85023437 35.82070312 -13.44921875 35.53515625 C-15.59359357 34.42367401 -17.50701312 33.1722772 -19.5 31.8125 C-26.84187694 27.21537632 -36.10007262 27.61042877 -44.4375 29 C-54.16036853 31.80882869 -63.1353718 36.2893717 -71.48046875 41.95703125 C-73.6875 43.375 -73.6875 43.375 -76.6875 44.375 C-77.47543483 42.11093409 -77.87416809 40.86634475 -77.0078125 38.5859375 C-66.83626206 22.96296788 -51.99917408 12.5192488 -36.6875 2.375 C-36.03394531 1.93285156 -35.38039062 1.49070313 -34.70703125 1.03515625 C-23.82660941 -5.81356534 -11.02556597 -6.66662128 0 0 Z " fill="#03F790" transform="translate(106.6875,136.625)"/>
<path d="M0 0 C1.12535156 0.00580078 1.12535156 0.00580078 2.2734375 0.01171875 C3.02367187 0.00785156 3.77390625 0.00398438 4.546875 0 C10.14682697 0.01010822 10.14682697 0.01010822 11.2734375 1.13671875 C11.36783728 3.40663762 11.39085976 5.67953842 11.38696289 7.95141602 C11.38710892 8.66357269 11.38725494 9.37572937 11.3874054 10.10946655 C11.3867062 12.47404987 11.37891356 14.83855536 11.37109375 17.203125 C11.36922959 18.83837338 11.36780568 20.47362232 11.36680603 22.10887146 C11.36298068 26.4210666 11.35315025 30.73322827 11.34210205 35.04541016 C11.3318883 39.44237821 11.32730849 43.83935164 11.32226562 48.23632812 C11.31152799 56.86980706 11.29445137 65.50325875 11.2734375 74.13671875 C13.03772095 74.12886353 13.03772095 74.12886353 14.83764648 74.12084961 C19.18545781 74.10280212 23.5332658 74.09128767 27.88110352 74.08178711 C29.7658748 74.07674631 31.65064215 74.06991377 33.53540039 74.0612793 C36.23845386 74.04920258 38.94145581 74.04348807 41.64453125 74.0390625 C42.49244736 74.03390121 43.34036346 74.02873993 44.213974 74.02342224 C46.23414818 74.0232268 48.25421684 74.07465664 50.2734375 74.13671875 C52.02903692 75.89231817 51.40565669 78.17254317 51.41015625 80.5078125 C51.40435547 81.56162109 51.40435547 81.56162109 51.3984375 82.63671875 C51.40423828 83.69052734 51.40423828 83.69052734 51.41015625 84.765625 C51.40005128 90.01010497 51.40005128 90.01010497 50.2734375 91.13671875 C48.52961215 91.23559667 46.78178207 91.26470907 45.03515625 91.26611328 C43.91729736 91.26926544 42.79943848 91.2724176 41.64770508 91.27566528 C40.43107178 91.27364105 39.21443848 91.27161682 37.9609375 91.26953125 C36.72174561 91.27048798 35.48255371 91.2714447 34.20581055 91.27243042 C31.57955469 91.27311249 28.95339117 91.27175413 26.32714844 91.26708984 C22.95415036 91.26139256 19.58123185 91.26467177 16.20823669 91.27066231 C13.00080073 91.27513645 9.7933745 91.27200757 6.5859375 91.26953125 C5.3693042 91.27155548 4.1526709 91.27357971 2.89916992 91.27566528 C1.22238159 91.27093704 1.22238159 91.27093704 -0.48828125 91.26611328 C-1.47787842 91.26531769 -2.46747559 91.26452209 -3.48706055 91.26370239 C-5.7265625 91.13671875 -5.7265625 91.13671875 -6.7265625 90.13671875 C-6.82706464 87.37270467 -6.86272325 84.63364649 -6.85595703 81.86914062 C-6.85770935 81.00253311 -6.85946167 80.1359256 -6.86126709 79.24305725 C-6.86568675 76.36384102 -6.86274722 73.48468566 -6.859375 70.60546875 C-6.86004801 68.61389148 -6.861018 66.62231429 -6.86227417 64.6307373 C-6.8637513 60.4509198 -6.86159611 56.27112362 -6.85693359 52.09130859 C-6.8512363 46.72069349 -6.85451523 41.35012835 -6.86050606 35.97951508 C-6.86411127 31.86529155 -6.86297327 27.75107996 -6.86037827 23.63685608 C-6.85970889 21.65601089 -6.8605378 19.67516463 -6.86285782 17.69432068 C-6.86538369 14.93094999 -6.86154468 12.16766141 -6.85595703 9.40429688 C-6.85798126 8.57724747 -6.86000549 7.75019806 -6.86209106 6.89808655 C-6.8370607 0.25140709 -6.68358819 0.01206424 0 0 Z " fill="#102A4B" transform="translate(550.7265625,56.86328125)"/>
<path d="M0 0 C4.29 0 8.58 0 13 0 C17.43076923 5.53846154 17.43076923 5.53846154 19.1875 8.9375 C21.77401025 13.73415523 24.709393 18.25808698 27.68652344 22.81689453 C30.3479441 26.91646723 32.78549458 31.07868303 35.02734375 35.42578125 C35.92003868 37.17911705 35.92003868 37.17911705 38 38 C38 25.46 38 12.92 38 0 C41.96 0 45.92 0 50 0 C50 20.46 50 40.92 50 62 C45.71 62 41.42 62 37 62 C33.81089755 58.50227474 32.10589493 56.07782707 30 52 C28.8597517 50.05920787 27.71378663 48.12176456 26.5625 46.1875 C25.99273437 45.19105469 25.42296875 44.19460937 24.8359375 43.16796875 C22.22054597 38.65502719 19.45960799 34.23779984 16.69921875 29.8125 C15 27 15 27 13.89453125 24.6875 C13.1101694 22.81308241 13.1101694 22.81308241 11 22 C11 35.2 11 48.4 11 62 C7.37 62 3.74 62 0 62 C0 41.54 0 21.08 0 0 Z " fill="#07FC92" transform="translate(331,166)"/>
<path d="M0 0 C0.83337891 -0.02449219 1.66675781 -0.04898438 2.52539062 -0.07421875 C8.04556891 -0.10040141 11.20005119 0.6862627 15.5625 4.375 C19.65533552 9.30739152 19.65533552 9.30739152 19.3125 13.25 C19.065 13.95125 18.8175 14.6525 18.5625 15.375 C15.5925 16.365 12.6225 17.355 9.5625 18.375 C8.86125 17.570625 8.16 16.76625 7.4375 15.9375 C4.23560413 13.08363629 2.79650378 12.46320841 -1.4375 12.375 C-4.23817065 13.20986387 -4.23817065 13.20986387 -6.4375 14.375 C-6.93991322 16.7045947 -6.93991322 16.7045947 -6.4375 19.375 C-2.37158936 23.01292005 1.88889787 24.16000834 7.08203125 25.58203125 C10.60291731 26.70760585 13.44334795 28.40857805 16.5625 30.375 C16.5625 31.035 16.5625 31.695 16.5625 32.375 C17.2225 32.375 17.8825 32.375 18.5625 32.375 C21.34577609 38.75334103 23.35315262 44.7657275 20.71875 51.546875 C17.84271979 56.71595632 14.13884737 60.30505986 8.5625 62.375 C1.56513346 63.68970916 -4.77178366 63.98332378 -11.4375 61.375 C-12.4275 61.045 -13.4175 60.715 -14.4375 60.375 C-14.4375 59.715 -14.4375 59.055 -14.4375 58.375 C-15.035625 58.1275 -15.63375 57.88 -16.25 57.625 C-18.94188922 56.08677759 -19.95763443 55.12332178 -21.4375 52.375 C-22.0298072 49.38725572 -22.41276985 46.42299143 -22.4375 43.375 C-20.46783098 41.40533098 -17.08162463 41.69411849 -14.4375 41.375 C-13.4475 41.375 -12.4575 41.375 -11.4375 41.375 C-10.4375 43.125 -10.4375 43.125 -9.4375 45.375 C-8.25377351 47.64260719 -8.25377351 47.64260719 -6.4375 49.375 C-1.61303971 50.40072836 2.91200837 49.92516388 7.5625 48.375 C7.89647787 45.50086875 7.89647787 45.50086875 7.5625 42.375 C4.53936651 39.4833071 1.08279535 38.32219124 -2.8125 36.9375 C-9.50846625 34.43307365 -14.66526154 31.85423675 -19.4375 26.375 C-21.25449023 20.92402931 -21.72522052 13.68279394 -19.61328125 8.2578125 C-14.4986464 0.6143805 -8.55452499 0.01317094 0 0 Z " fill="#0DFA94" transform="translate(538.4375,165.625)"/>
<path d="M0 0 C12.87 0 25.74 0 39 0 C39 3.96 39 7.92 39 12 C30.42 12.33 21.84 12.66 13 13 C13 16.96 13 20.92 13 25 C20.26 25.33 27.52 25.66 35 26 C35 29.3 35 32.6 35 36 C27.74 36.33 20.48 36.66 13 37 C13 41.29 13 45.58 13 50 C15.475 49.505 15.475 49.505 18 49 C19.76552798 48.92252803 21.53358456 48.89200927 23.30078125 48.90234375 C24.27724609 48.90556641 25.25371094 48.90878906 26.25976562 48.91210938 C27.26716797 48.92048828 28.27457031 48.92886719 29.3125 48.9375 C30.33923828 48.94201172 31.36597656 48.94652344 32.42382812 48.95117188 C34.94924388 48.96291799 37.47462952 48.98085229 40 49 C40 53.29 40 57.58 40 62 C26.8 62 13.6 62 0 62 C0 41.54 0 21.08 0 0 Z " fill="#09FB93" transform="translate(464,166)"/>
<path d="M0 0 C1.12535156 0.00580078 1.12535156 0.00580078 2.2734375 0.01171875 C3.02367187 0.00785156 3.77390625 0.00398438 4.546875 0 C10.14682697 0.01010822 10.14682697 0.01010822 11.2734375 1.13671875 C11.37393964 3.90073283 11.40959825 6.63979101 11.40283203 9.40429688 C11.40458435 10.27090439 11.40633667 11.1375119 11.40814209 12.03038025 C11.41256175 14.90959648 11.40962222 17.78875184 11.40625 20.66796875 C11.40692301 22.65954602 11.407893 24.65112321 11.40914917 26.6427002 C11.4106263 30.8225177 11.40847111 35.00231388 11.40380859 39.18212891 C11.3981113 44.55274401 11.40139023 49.92330915 11.40738106 55.29392242 C11.41098627 59.40814595 11.40984827 63.52235754 11.40725327 67.63658142 C11.40658389 69.61742661 11.4074128 71.59827287 11.40973282 73.57911682 C11.41225869 76.34248751 11.40841968 79.10577609 11.40283203 81.86914062 C11.40485626 82.69619003 11.40688049 83.52323944 11.40896606 84.37535095 C11.38769994 90.02245631 11.38769994 90.02245631 10.2734375 91.13671875 C7.5961237 91.23653089 4.95039575 91.2755175 2.2734375 91.26171875 C1.14808594 91.26751953 1.14808594 91.26751953 0 91.2734375 C-5.59995197 91.26332928 -5.59995197 91.26332928 -6.7265625 90.13671875 C-6.82706464 87.37270467 -6.86272325 84.63364649 -6.85595703 81.86914062 C-6.85770935 81.00253311 -6.85946167 80.1359256 -6.86126709 79.24305725 C-6.86568675 76.36384102 -6.86274722 73.48468566 -6.859375 70.60546875 C-6.86004801 68.61389148 -6.861018 66.62231429 -6.86227417 64.6307373 C-6.8637513 60.4509198 -6.86159611 56.27112362 -6.85693359 52.09130859 C-6.8512363 46.72069349 -6.85451523 41.35012835 -6.86050606 35.97951508 C-6.86411127 31.86529155 -6.86297327 27.75107996 -6.86037827 23.63685608 C-6.85970889 21.65601089 -6.8605378 19.67516463 -6.86285782 17.69432068 C-6.86538369 14.93094999 -6.86154468 12.16766141 -6.85595703 9.40429688 C-6.85798126 8.57724747 -6.86000549 7.75019806 -6.86209106 6.89808655 C-6.8370607 0.25140709 -6.68358819 0.01206424 0 0 Z " fill="#102A4B" transform="translate(333.7265625,56.86328125)"/>
<path d="M0 0 C4.29 0 8.58 0 13 0 C14.51841012 4.33523234 16.02969424 8.67286487 17.53491211 13.01269531 C18.04606332 14.48339852 18.5590313 15.9534718 19.07397461 17.42285156 C22.14832517 26.19986796 24.96296447 34.91017852 27 44 C27.66 44 28.32 44 29 44 C29.23783203 42.92685547 29.23783203 42.92685547 29.48046875 41.83203125 C31.33715363 33.90265327 33.97428193 26.54820093 37 19 C37.61690205 17.40454045 38.23133706 15.80812556 38.84375 14.2109375 C39.15924805 13.38996582 39.47474609 12.56899414 39.79980469 11.72314453 C40.42659653 10.09174644 41.05227244 8.4599191 41.67675781 6.82763672 C43.88731748 1.11268252 43.88731748 1.11268252 45 0 C47.01964199 -0.07244053 49.04167124 -0.08377188 51.0625 -0.0625 C52.71958984 -0.04896484 52.71958984 -0.04896484 54.41015625 -0.03515625 C55.26480469 -0.02355469 56.11945313 -0.01195312 57 0 C56.39690738 4.73754682 55.02168774 8.87161635 53.1875 13.25 C52.68087316 14.48432722 52.17436516 15.71870322 51.66796875 16.953125 C51.40016602 17.60128174 51.13236328 18.24943848 50.85644531 18.91723633 C47.39669958 27.33088821 44.12987105 35.81796265 40.875 44.3125 C39.99770294 46.6003782 39.12011011 48.88814302 38.2421875 51.17578125 C37.66766846 52.67492065 37.66766846 52.67492065 37.08154297 54.2043457 C36.07337572 56.81033287 35.03774094 59.40564766 34 62 C29.71 62 25.42 62 21 62 C16.68318946 51.98867343 12.87284157 41.92134657 9.49707031 31.55371094 C7.52627692 25.51605899 5.39534187 19.5924105 3.04296875 13.69140625 C1.14446466 8.79227023 0 5.3426519 0 0 Z " fill="#0CFB94" transform="translate(394,166)"/>
<path d="M0 0 C16.5 0 33 0 50 0 C50 3.96 50 7.92 50 12 C44.06 12 38.12 12 32 12 C32.00523682 13.47911865 32.01047363 14.9582373 32.01586914 16.48217773 C32.03391238 21.9481547 32.04542952 27.41412901 32.05493164 32.88012695 C32.05997341 35.24992312 32.06680665 37.61971615 32.07543945 39.98950195 C32.0875119 43.38754039 32.09322971 46.78553785 32.09765625 50.18359375 C32.10281754 51.25024765 32.10797882 52.31690155 32.11329651 53.4158783 C32.11337204 54.39681961 32.11344757 55.37776093 32.11352539 56.38842773 C32.115746 57.25668686 32.11796661 58.12494598 32.12025452 59.01951599 C32 61 32 61 31 62 C27.04 62 23.08 62 19 62 C18.67 45.83 18.34 29.66 18 13 C12.06 12.67 6.12 12.34 0 12 C0 8.04 0 4.08 0 0 Z " fill="#0CFA94" transform="translate(569,166)"/>
<path d="M0 0 C3.96 0 7.92 0 12 0 C12 20.46 12 40.92 12 62 C8.04 62 4.08 62 0 62 C0 41.54 0 21.08 0 0 Z " fill="#04FC92" transform="translate(300,166)"/>
<path d="M0 0 C2.40057305 2.25860368 3.55532395 3.66492966 4 7 C3.67 7.33 3.34 7.66 3 8 C2.72046781 10.0587768 2.55265649 12.11728432 2.37890625 14.1875 C2.25386719 14.785625 2.12882812 15.38375 2 16 C1.34 16.33 0.68 16.66 0 17 C-0.165 17.66 -0.33 18.32 -0.5 19 C-0.665 19.66 -0.83 20.32 -1 21 C-1.66 21.33 -2.32 21.66 -3 22 C-2.86722656 21.41734375 -2.73445313 20.8346875 -2.59765625 20.234375 C-1.14906124 13.50951058 -0.44789343 6.85984142 0 0 Z " fill="#1C3459" transform="translate(418,98)"/>
<path d="M0 0 C1.03253906 0.01353516 1.03253906 0.01353516 2.0859375 0.02734375 C3.76577838 0.05067487 5.44543746 0.08653674 7.125 0.125 C7.125 0.455 7.125 0.785 7.125 1.125 C6.14660156 1.22296875 5.16820313 1.3209375 4.16015625 1.421875 C-2.73938442 2.20884326 -8.92047972 3.01736714 -15.140625 6.3203125 C-16.875 7.125 -16.875 7.125 -19.875 7.125 C-19.545 6.135 -19.215 5.145 -18.875 4.125 C-17.225 4.125 -15.575 4.125 -13.875 4.125 C-13.875 3.465 -13.875 2.805 -13.875 2.125 C-9.17038677 0.26367327 -4.9992304 -0.1259496 0 0 Z " fill="#13C185" transform="translate(67.875,162.875)"/>
<path d="M0 0 C6.73742646 -0.11044961 13.29980211 0.29867087 20 1 C15.14822595 3.75992564 10.2591276 3.68988832 4.859375 2.546875 C3.2243984 2.08163776 1.60919185 1.54780999 0 1 C0 0.67 0 0.34 0 0 Z " fill="#0EC584" transform="translate(125,201)"/>
<path d="M0 0 C-4.625 4.875 -4.625 4.875 -8 6 C-8 5.34 -8 4.68 -8 4 C-7.34 4 -6.68 4 -6 4 C-6 3.01 -6 2.02 -6 1 C-6.99 0.34 -7.98 -0.32 -9 -1 C-5.22102349 -2.0497157 -3.35080929 -2.10976881 0 0 Z " fill="#11D48C" transform="translate(160,193)"/>
<path d="M0 0 C-0.99 0.33 -1.98 0.66 -3 1 C-3.33 1.66 -3.66 2.32 -4 3 C-10.93 2.505 -10.93 2.505 -18 2 C-18 1.67 -18 1.34 -18 1 C-11.95170514 0.10395632 -6.1105424 -0.11269443 0 0 Z " fill="#293D5E" transform="translate(496,56)"/>
<path d="M0 0 C0.33 0.66 0.66 1.32 1 2 C-8.09090909 7.27272727 -8.09090909 7.27272727 -12 9 C-12.66 8.67 -13.32 8.34 -14 8 C-9.44815281 4.5628909 -5.31522416 2.06100529 0 0 Z " fill="#013A41" transform="translate(47,171)"/>
<path d="M0 0 C1.14926266 0.95421808 2.29430541 1.91352045 3.4375 2.875 C4.07558594 3.40867188 4.71367188 3.94234375 5.37109375 4.4921875 C7 6 7 6 8 8 C6.68 8 5.36 8 4 8 C3.67 8.99 3.34 9.98 3 11 C2.34 10.67 1.68 10.34 1 10 C1.20625 9.0925 1.4125 8.185 1.625 7.25 C2.02486177 3.78453137 1.65475295 2.90529144 0 0 Z " fill="#053543" transform="translate(104,187)"/>
<path d="M0 0 C-0.66 0.66 -1.32 1.32 -2 2 C-2.99 2 -3.98 2 -5 2 C-5.66 3.65 -6.32 5.3 -7 7 C-8.32 6.34 -9.64 5.68 -11 5 C-8.10998474 1.78887193 -4.47884754 -2.23942377 0 0 Z " fill="#39F7A7" transform="translate(531,167)"/>
<path d="M0 0 C0.33 0.66 0.66 1.32 1 2 C-0.38081223 6.1424367 -2.59825558 7.32203099 -6 10 C-6.66 9.67 -7.32 9.34 -8 9 C-5.36 6.03 -2.72 3.06 0 0 Z " fill="#0FE28F" transform="translate(41,161)"/>
<path d="M0 0 C0.33 0.99 0.66 1.98 1 3 C1.99 3.33 2.98 3.66 4 4 C2.35 5.98 0.7 7.96 -1 10 C-1.625 8.125 -1.625 8.125 -2 6 C-1.34 5.34 -0.68 4.68 0 4 C-0.33 3.34 -0.66 2.68 -1 2 C-0.67 1.34 -0.34 0.68 0 0 Z " fill="#043444" transform="translate(34,161)"/>
<path d="M0 0 C3.34373475 0.55728913 6.03312999 1.35173889 9 3 C5.52176885 4.15941038 3.54104422 3.70820884 0 3 C0 2.01 0 1.02 0 0 Z " fill="#43F5AB" transform="translate(544,166)"/>
<path d="M0 0 C0.33 0 0.66 0 1 0 C1.34615998 5.65394631 0.43425238 9.03006806 -2 14 C-2.33 14 -2.66 14 -3 14 C-3.125 11.125 -3.125 11.125 -3 8 C-2.34 7.34 -1.68 6.68 -1 6 C-0.60235737 4.01178687 -0.26224651 2.01055661 0 0 Z " fill="#273D68" transform="translate(532,111)"/>
<path d="M0 0 C0 3 0 3 -2.5 5.6875 C-3.325 6.450625 -4.15 7.21375 -5 8 C-5.66 7.34 -6.32 6.68 -7 6 C-4.69 4.02 -2.38 2.04 0 0 Z " fill="#10E18E" transform="translate(49,154)"/>
<path d="M0 0 C0.66 0 1.32 0 2 0 C1.34 2.64 0.68 5.28 0 8 C-0.99 7.01 -1.98 6.02 -3 5 C-1.125 1.125 -1.125 1.125 0 0 Z " fill="#1A3357" transform="translate(464,89)"/>
<path d="M0 0 C3.465 1.98 3.465 1.98 7 4 C6.01 4.99 5.02 5.98 4 7 C4 6.34 4 5.68 4 5 C2.68 4.34 1.36 3.68 0 3 C0 2.01 0 1.02 0 0 Z " fill="#162C4F" transform="translate(512,62)"/>
<path d="M0 0 C0.66 0 1.32 0 2 0 C1 3 1 3 -0.875 4.1875 C-3 5 -3 5 -6 5 C-5.67 4.01 -5.34 3.02 -5 2 C-3.35 2 -1.7 2 0 2 C0 1.34 0 0.68 0 0 Z " fill="#10D98C" transform="translate(54,165)"/>
<path d="M0 0 C1.98 0.66 3.96 1.32 6 2 C6 2.99 6 3.98 6 5 C4.02 4.34 2.04 3.68 0 3 C0 2.01 0 1.02 0 0 Z " fill="#203353" transform="translate(108,280)"/>
<path d="M0 0 C0.66 0 1.32 0 2 0 C2 0.99 2 1.98 2 3 C-1.96 3 -5.92 3 -10 3 C-10 2.67 -10 2.34 -10 2 C-9.04287109 1.90912109 -9.04287109 1.90912109 -8.06640625 1.81640625 C-6.82697266 1.69072266 -6.82697266 1.69072266 -5.5625 1.5625 C-4.73878906 1.48128906 -3.91507813 1.40007812 -3.06640625 1.31640625 C-1.01337975 1.21069185 -1.01337975 1.21069185 0 0 Z " fill="#5AF9B8" transform="translate(544,214)"/>
<path d="M0 0 C0.66 0 1.32 0 2 0 C1.39816251 2.02045442 0.72693904 4.02111039 0 6 C-0.99 6.495 -0.99 6.495 -2 7 C-2.33 5.02 -2.66 3.04 -3 1 C-2.34 1.66 -1.68 2.32 -1 3 C-0.67 2.01 -0.34 1.02 0 0 Z " fill="#458DB7" transform="translate(236,139)"/>
</svg>
